<svg xmlns="http://www.w3.org/2000/svg" width="40" height="41" viewBox="0 0 40 41">
    <path fill="#001E3E" fill-rule="evenodd" d="M13 4.49h14a9 9 0 0 1 8.996 8.735l.004.266v14a9 9 0 0 1-8.735 8.996L27 36.49H13a9 9 0 0 1-8.996-8.735L4 27.491v-14a9 9 0 0 1 8.735-8.997L13 4.491h14zm14 3H13a6.007 6.007 0 0 0-5.996 5.776L7 13.49v14a6.007 6.007 0 0 0 5.775 5.995l.225.005h14a6.007 6.007 0 0 0 5.996-5.776l.004-.224v-14c0-3.31-2.691-6-6-6zm-7 5a8 8 0 1 1 0 16.001 8 8 0 0 1 0-16zm0 3c-2.757 0-5 2.244-5 5 0 2.758 2.243 5 5 5s5-2.242 5-5c0-2.756-2.243-5-5-5zm8.5-5.5a2 2 0 1 1-.001 4.002 2 2 0 0 1 .001-4.001z"/>
</svg>
