<?xml version="1.0" encoding="UTF-8"?>
<svg width="40px" height="40px" viewBox="0 0 40 40" version="1.1" xmlns="http://www.w3.org/2000/svg" xmlns:xlink="http://www.w3.org/1999/xlink">
    <!-- Generator: Sketch 59.1 (86144) - https://sketch.com -->
    <title>icons/40px/social/linkedin</title>
    <desc>Created with Sketch.</desc>
    <g id="icons/40px/social/linkedin" stroke="none" stroke-width="1" fill="none" fill-rule="evenodd">
        <path d="M33.1053403,4 L6.89465969,4 C5.296,4 4,5.296 4,6.89465969 L4,33.1052565 C4,34.704 5.296,36 6.89465969,36 L33.1052565,36 C34.704,36 36,34.704 36,33.1052565 L36,6.89465969 C36,5.296 34.704,4 33.1053403,4 Z M13.9021571,31.630911 C13.9021571,32.0961675 13.5250262,32.4732984 13.0597696,32.4732984 L9.4739267,32.4732984 C9.00867016,32.4732984 8.63153927,32.0961675 8.63153927,31.630911 L8.63153927,16.5992042 C8.63153927,16.1339476 9.00867016,15.7568168 9.4739267,15.7568168 L13.0597696,15.7568168 C13.5250262,15.7568168 13.9021571,16.1339476 13.9021571,16.5992042 L13.9021571,31.630911 Z M11.2668482,14.3398534 C9.38546597,14.3398534 7.86027225,12.8146597 7.86027225,10.9332775 C7.86027225,9.05189529 9.38546597,7.52670157 11.2668482,7.52670157 C13.1482304,7.52670157 14.6734241,9.05189529 14.6734241,10.9332775 C14.6734241,12.8146597 13.1483141,14.3398534 11.2668482,14.3398534 Z M32.6416777,31.6987644 C32.6416777,32.1264921 32.2948691,32.4732984 31.8671414,32.4732984 L28.019267,32.4732984 C27.5915393,32.4732984 27.244733,32.1264921 27.244733,31.6987644 L27.244733,24.6480419 C27.244733,23.5962304 27.5532565,20.0389529 24.496,20.0389529 C22.1245654,20.0389529 21.6435602,22.473801 21.5469738,23.5664921 L21.5469738,31.6987644 C21.5469738,32.1264921 21.2002513,32.4732984 20.7724398,32.4732984 L17.0508901,32.4732984 C16.6231623,32.4732984 16.276356,32.1264921 16.276356,31.6987644 L16.276356,16.5313508 C16.276356,16.103623 16.6231623,15.7568168 17.0508901,15.7568168 L20.7724398,15.7568168 C21.2001675,15.7568168 21.5469738,16.103623 21.5469738,16.5313508 L21.5469738,17.8427644 C22.4263037,16.5231414 23.7331099,15.5045864 26.5155183,15.5045864 C32.6769424,15.5045864 32.6416777,21.2609005 32.6416777,24.4237068 L32.6416777,31.6987644 L32.6416777,31.6987644 Z" id="Shape" fill="#001E3E" fill-rule="nonzero"></path>
    </g>
</svg>