<svg xmlns="http://www.w3.org/2000/svg" width="40" height="41" viewBox="0 0 40 41">
    <path fill="#001E3E" fill-rule="evenodd" d="M14.04 33.5c12.083 0 18.69-10.013 18.69-18.69 0-.287 0-.573-.013-.845A13.478 13.478 0 0 0 36 10.56a13.35 13.35 0 0 1-3.773 1.036 6.564 6.564 0 0 0 2.887-3.638 13.285 13.285 0 0 1-4.168 1.594 6.54 6.54 0 0 0-4.796-2.07 6.57 6.57 0 0 0-6.566 6.566c0 .517.055 1.021.178 1.498-5.463-.273-10.299-2.888-13.541-6.866a6.585 6.585 0 0 0-.886 3.297 6.54 6.54 0 0 0 2.929 5.463 6.455 6.455 0 0 1-2.97-.817v.081c0 3.188 2.262 5.83 5.272 6.443a6.498 6.498 0 0 1-2.97.11 6.559 6.559 0 0 0 6.131 4.563 13.21 13.21 0 0 1-8.161 2.807A11.79 11.79 0 0 1 4 30.53a18.299 18.299 0 0 0 10.04 2.97"/>
</svg>
